<?xml version="1.0" encoding="UTF-8"?>
<!DOCTYPE svg PUBLIC "-//W3C//DTD SVG 1.1//EN" "http://www.w3.org/Graphics/SVG/1.1/DTD/svg11.dtd">
<!-- Creator: CorelDRAW -->
<svg xmlns="http://www.w3.org/2000/svg" xml:space="preserve" width="130.267mm" height="94.1654mm" version="1.1" style="shape-rendering:geometricPrecision; text-rendering:geometricPrecision; image-rendering:optimizeQuality; fill-rule:evenodd; clip-rule:evenodd"
viewBox="0 0 13026.6 9416.44"
 xmlns:xlink="http://www.w3.org/1999/xlink"
 xmlns:xodm="http://www.corel.com/coreldraw/odm/2003">
 <defs>
  <style type="text/css">
   <![CDATA[
    .fil2 {fill:#94BC49}
    .fil1 {fill:#94BC49;fill-rule:nonzero}
    .fil0 {fill:#1698D4;fill-rule:nonzero}
   ]]>
  </style>
 </defs>
 <g id="Capa_x0020_1">
  <metadata id="CorelCorpID_0Corel-Layer"/>
  <g id="_2145312269952">
   <path class="fil0" d="M1297.69 8414.04l0 18.97c0,62.31 -10.84,108.37 -32.51,143.59 -18.96,35.22 -46.06,62.31 -83.98,81.27 -35.22,18.97 -73.15,29.8 -116.5,32.51 -46.06,2.71 -86.69,5.42 -121.91,8.13 -165.26,8.13 -306.14,-2.71 -422.64,-27.09 -119.2,-24.38 -216.73,-70.44 -292.59,-138.17 -78.57,-67.73 -135.46,-162.55 -170.68,-281.76 -37.93,-116.49 -56.89,-265.5 -56.89,-444.3l0 -512.03c0,-121.92 18.96,-219.45 56.89,-289.89 18.97,-35.21 43.35,-65.02 70.44,-86.69 27.09,-21.67 59.6,-40.64 94.82,-54.18 24.38,-8.13 48.77,-16.26 73.15,-24.39 24.38,-5.41 51.47,-10.83 81.28,-13.54 37.92,-2.71 78.56,-5.42 119.2,-8.13 40.64,-2.71 83.98,-2.71 130.04,-2.71l238.41 0c116.5,0 197.77,-2.71 249.25,-5.42 51.47,-2.71 83.98,-5.42 97.53,-8.12l5.41 0 16.26 0 0 16.25c0,62.31 -10.84,108.37 -32.51,143.59 -18.96,35.22 -48.77,62.31 -83.99,83.98 -35.21,18.97 -73.14,29.8 -113.78,32.51 -40.64,2.71 -83.99,5.42 -124.62,5.42l-460.57 0c-10.83,2.71 -18.96,2.71 -27.09,5.42 -8.13,2.71 -13.54,5.42 -18.96,8.13 -10.84,5.42 -18.97,13.54 -24.39,21.67 -8.12,8.13 -10.83,21.67 -13.54,35.22 -2.71,16.26 -2.71,35.22 -2.71,54.18l8.13 330.53 666.45 0c0,81.27 -21.68,146.29 -67.73,195.06 -46.06,48.76 -108.37,73.15 -192.35,73.15l-409.09 0c-2.71,121.91 5.42,222.15 24.38,300.72 18.96,81.27 51.47,146.29 97.53,192.35 43.35,46.06 100.24,81.27 173.39,100.24 70.44,18.96 154.42,29.8 254.66,29.8 116.5,0 208.61,-2.71 273.63,-5.42 62.31,-2.71 102.95,-5.42 116.5,-8.13l5.42 0 16.25 -2.71z"/>
   <path class="fil0" d="M1323.15 8015.79c0,-121.91 18.96,-219.44 54.18,-298.01 35.22,-75.85 78.57,-135.46 135.46,-178.8 54.18,-43.35 116.5,-73.15 186.93,-89.41 67.73,-13.54 138.17,-21.67 208.61,-21.67 67.73,0 138.17,8.13 208.61,21.67 70.44,16.26 135.46,46.06 192.35,89.41 56.9,43.34 102.95,102.95 138.17,178.8 35.22,78.57 51.48,176.1 51.48,298.01l10.83 682.71c-111.07,0 -195.06,-24.38 -254.66,-70.44 -59.6,-46.06 -89.4,-124.62 -89.4,-230.28l2.7 -382c0,-75.85 -8.12,-138.17 -21.67,-184.22 -16.25,-46.06 -37.93,-81.28 -62.31,-108.37 -24.38,-24.38 -54.18,-43.35 -83.99,-51.47 -29.8,-8.13 -62.31,-13.55 -92.11,-13.55 -29.8,0 -59.6,5.42 -89.4,13.55 -29.8,8.12 -56.89,27.09 -81.28,51.47 -24.38,27.09 -46.05,62.31 -59.6,108.37 -16.25,46.05 -24.38,108.37 -24.38,184.22l0 419.93c2.71,54.18 2.71,97.53 5.42,132.75 0,35.22 0,62.31 2.71,81.27 2.71,21.68 2.71,37.93 5.41,48.77 -111.07,0 -197.77,-24.38 -257.37,-70.44 -59.6,-46.06 -89.4,-124.62 -89.4,-230.28l2.71 -382z"/>
   <path class="fil0" d="M3635.13 8435.72c21.67,13.54 43.34,35.22 62.31,65.02l8.13 8.13 -8.13 8.12c-59.6,65.02 -130.04,116.5 -211.32,151.72 -83.98,37.93 -173.39,56.89 -268.21,56.89 -83.98,0 -159.84,-16.25 -232.99,-51.47 -73.15,-32.51 -138.17,-78.57 -195.06,-138.17 -54.18,-56.89 -97.53,-127.33 -127.33,-205.9 -32.51,-78.57 -48.77,-162.55 -48.77,-251.96 0,-89.4 13.55,-176.09 43.35,-254.66 27.09,-78.57 67.73,-146.3 119.2,-205.9 51.48,-56.89 116.5,-102.95 192.36,-138.17 73.14,-35.22 157.13,-51.47 249.24,-51.47 51.48,0 105.66,8.13 167.97,21.67 59.6,16.26 116.5,40.64 167.97,73.15 51.48,35.22 94.82,78.57 130.04,132.75 35.22,54.18 51.48,119.21 51.48,195.06 0,73.15 -18.97,132.75 -56.9,178.81 -37.92,46.06 -83.98,83.98 -135.46,108.37 -51.47,27.09 -108.36,46.05 -165.26,54.18 -59.6,10.84 -111.07,16.26 -154.42,16.26 -67.73,0 -124.62,-5.42 -173.39,-13.55 -51.47,-8.13 -83.98,-13.55 -102.95,-16.25 8.13,65.02 21.68,116.49 43.35,157.13 21.67,40.64 46.06,73.15 73.15,97.53 27.09,24.38 54.18,37.93 81.27,46.06 27.1,8.12 51.48,13.54 73.15,13.54 37.93,0 73.15,-2.71 108.37,-10.84 35.22,-8.12 65.02,-16.25 92.11,-24.38 27.09,-8.13 54.19,-18.96 78.57,-27.09 24.38,-8.13 46.05,-13.55 70.44,-13.55 24.38,0 48.76,5.42 67.73,18.97zm-417.22 -777.53c-18.96,2.71 -43.35,5.42 -70.44,13.55 -27.09,8.12 -54.18,24.38 -78.56,46.05 -27.1,21.68 -51.48,51.48 -73.15,92.11 -21.68,40.64 -37.93,89.41 -46.06,151.72 29.8,8.13 70.44,16.25 124.62,24.38 51.48,8.13 105.66,10.84 159.85,5.42 51.47,-5.42 100.24,-21.67 140.87,-46.06 40.64,-24.38 62.32,-67.73 65.03,-127.33 2.7,-46.05 -13.55,-83.98 -51.48,-116.49 -40.64,-32.51 -97.53,-46.06 -170.68,-43.35z"/>
   <path class="fil0" d="M3842.1 8045.59c0,-121.91 18.96,-219.44 54.18,-298.01 35.22,-75.85 78.57,-135.46 135.46,-178.8 56.89,-43.35 119.21,-73.15 189.64,-89.41 67.73,-13.54 138.17,-21.67 205.9,-21.67l132.75 0c8.13,37.93 10.84,73.15 5.42,105.66 -2.71,27.09 -16.25,54.18 -35.22,78.57 -21.67,24.38 -56.89,40.63 -102.95,46.05 -29.8,2.71 -59.6,10.84 -89.4,18.97 -29.8,10.83 -56.89,27.09 -81.28,51.47 -24.38,24.38 -43.34,59.6 -56.89,105.66 -16.25,46.06 -24.38,105.66 -24.38,181.51l0 392.84c0,54.18 0,97.53 2.71,130.04 0,35.22 0,62.31 2.71,81.27 2.71,21.68 2.71,37.93 5.42,48.77 -111.08,0 -195.07,-24.38 -254.67,-70.44 -59.6,-46.06 -89.4,-121.91 -89.4,-230.28l0 -352.2z"/>
   <path class="fil0" d="M4848.28 8666c81.28,-24.38 167.97,-43.35 262.79,-54.18 94.82,-8.13 181.52,-2.71 262.79,16.25 78.57,18.97 146.3,56.89 197.77,113.79 51.48,56.89 78.57,135.46 78.57,241.12 0,78.56 -16.25,146.29 -51.47,203.18 -29.81,51.48 -73.15,97.54 -127.34,135.46 -51.47,35.22 -108.36,59.61 -165.26,73.15 -56.89,13.55 -111.07,21.68 -159.84,21.68l-24.38 0c-83.99,-2.71 -159.84,-21.68 -227.57,-54.19 -67.73,-32.51 -130.05,-75.86 -181.52,-132.75 -51.47,-56.89 -89.4,-124.62 -119.2,-200.48 -29.81,-78.57 -48.77,-165.26 -51.48,-262.79 -2.71,-8.13 -2.71,-13.55 -2.71,-21.67 0,-8.13 0,-13.55 0,-21.68 0,-102.95 18.97,-195.06 54.19,-279.04 35.22,-83.99 86.69,-151.72 151.71,-205.9 -56.89,-43.35 -102.95,-97.53 -135.46,-159.85 -35.22,-62.31 -51.47,-130.04 -51.47,-203.18 0,-67.73 13.54,-130.05 43.34,-186.94 29.8,-56.89 67.73,-108.37 119.21,-149 51.47,-43.35 108.37,-78.57 176.1,-102.95 67.72,-24.39 138.16,-35.22 214.02,-35.22 83.99,0 162.55,10.83 230.28,35.22 67.73,24.38 124.63,59.6 170.68,102.95 100.24,86.69 151.72,197.77 151.72,335.94 0,62.31 -13.55,124.62 -40.64,181.51 -29.8,56.89 -67.73,108.37 -116.5,149.01 -46.05,40.63 -100.24,73.15 -162.55,97.53 -62.31,24.38 -130.04,40.64 -200.48,43.35l0 2.7 -16.25 0c-59.61,0 -108.37,10.84 -143.59,29.81 -35.22,18.96 -65.02,43.34 -83.99,78.56 -18.96,29.8 -32.51,65.02 -40.63,108.37 -8.13,43.35 -10.84,75.86 -10.84,100.24zm262.79 -1034.9c-16.25,0 -35.22,2.71 -59.6,8.13 -24.38,8.12 -46.06,18.96 -65.02,37.92 -21.68,18.97 -40.64,43.35 -54.19,73.15 -13.54,32.51 -21.67,73.15 -21.67,124.63 0,51.47 8.13,92.11 21.67,121.91 13.55,32.51 32.51,56.89 54.19,73.15 18.96,18.96 40.64,29.8 65.02,35.22 24.38,8.12 43.35,10.83 59.6,10.83 18.97,0 37.93,-2.71 62.31,-10.83 24.39,-5.42 46.06,-16.26 67.73,-35.22 18.97,-16.26 37.93,-40.64 51.48,-73.15 13.54,-29.8 21.67,-70.44 21.67,-121.91 0,-51.48 -8.13,-92.12 -21.67,-124.63 -13.55,-29.8 -32.51,-54.18 -51.48,-73.15 -21.67,-18.96 -43.34,-29.8 -67.73,-37.92 -24.38,-5.42 -43.34,-8.13 -62.31,-8.13zm227.57 1487.32c18.97,-18.96 29.8,-37.92 35.22,-56.89 5.42,-21.67 8.13,-43.35 8.13,-62.31 0,-18.96 0,-29.8 -2.71,-35.22 -5.42,-24.38 -16.25,-48.76 -29.8,-70.44 -13.55,-16.25 -29.8,-29.8 -54.18,-43.35 -24.39,-10.83 -48.77,-18.96 -75.86,-21.67 -27.09,-5.42 -54.18,-8.13 -83.99,-8.13 -29.8,0 -56.89,2.71 -86.69,5.42 -29.8,2.71 -56.89,8.13 -81.28,13.55 -24.38,2.71 -46.05,8.13 -65.02,13.54 -18.96,5.42 -35.22,8.13 -43.34,10.84 2.71,21.67 8.12,46.06 13.54,70.44 5.42,24.38 13.55,51.47 24.39,75.86 13.54,29.8 27.09,56.89 46.05,81.27 18.97,24.39 40.64,43.35 67.73,56.9 37.93,24.38 83.99,35.22 135.46,35.22 51.48,0 94.82,-5.42 124.62,-18.97 29.8,-13.54 51.48,-27.09 67.73,-46.06z"/>
   <path class="fil0" d="M6938.12 8140.42c0,121.91 -18.96,219.44 -54.18,295.3 -35.22,75.86 -81.27,135.46 -138.17,178.81 -56.89,43.34 -121.91,73.14 -192.35,89.4 -70.44,16.25 -140.88,24.38 -208.61,24.38 -67.73,0 -138.17,-8.13 -208.61,-24.38 -70.44,-16.26 -132.75,-46.06 -189.64,-89.4 -56.89,-43.35 -102.95,-102.95 -138.17,-178.81 -35.22,-75.86 -54.18,-173.39 -54.18,-295.3l2.71 -382c0,-108.37 29.8,-186.93 89.4,-232.99 56.89,-46.06 143.59,-67.73 254.66,-67.73 -2.7,10.84 -2.7,27.09 -5.41,48.77 -2.71,18.96 -2.71,46.05 -2.71,81.27 -2.71,35.22 -2.71,78.57 -2.71,132.75l2.71 419.93c0,75.85 8.12,135.46 21.67,181.51 13.55,46.06 35.22,83.99 59.6,108.37 24.39,24.38 51.48,43.35 81.28,51.47 29.8,8.13 59.6,13.55 89.4,13.55 29.8,0 62.31,-5.42 92.11,-13.55 29.81,-8.12 56.9,-27.09 81.28,-51.47 24.38,-24.38 43.35,-62.31 56.89,-108.37 13.55,-46.05 21.68,-105.66 21.68,-181.51l2.71 -382c0,-108.37 29.8,-186.93 89.4,-232.99 59.6,-46.06 146.3,-67.73 257.37,-67.73 -2.71,10.84 -2.71,27.09 -5.42,48.77 -2.71,18.96 -2.71,46.05 -2.71,81.27 -2.7,35.22 -2.7,78.57 -2.7,132.75l2.7 419.93z"/>
   <path class="fil0" d="M7210.09 8007.67c48.77,-29.81 102.95,-54.19 165.26,-70.44 62.32,-13.55 124.63,-21.68 192.36,-21.68 94.82,0 184.22,13.55 268.21,40.64 -5.42,-56.89 -16.26,-105.66 -35.22,-149 -24.38,-56.9 -59.6,-97.54 -105.66,-121.92 -18.96,-8.13 -37.93,-16.25 -56.89,-21.67 -21.68,-2.71 -46.06,-5.42 -73.15,-5.42l-29.8 0c-24.39,2.71 -51.48,5.42 -75.86,10.84 -24.38,8.12 -51.47,16.25 -75.86,24.38 -24.38,8.13 -51.47,16.25 -75.86,21.67 -24.38,8.13 -48.76,10.84 -73.14,10.84 -24.39,0 -48.77,-5.42 -73.15,-16.26 -21.67,-13.54 -40.64,-32.51 -56.89,-62.31l-5.42 -10.83 5.42 -8.13c54.18,-56.89 119.2,-105.66 192.35,-140.88 73.15,-35.22 151.71,-54.18 238.41,-59.6 8.12,-2.71 16.25,-2.71 24.38,-2.71 5.42,0 13.55,0 21.67,0 83.99,0 159.85,13.55 227.58,43.35 67.73,29.8 127.33,73.14 178.8,124.62 102.95,111.08 157.14,260.08 159.84,441.6l0 21.67c0,186.94 -48.76,341.36 -143.58,457.85 -46.06,56.9 -102.95,105.66 -167.97,140.88 -67.73,35.22 -140.88,59.61 -222.16,67.73 -10.83,2.71 -21.67,2.71 -32.51,2.71 -10.83,0 -21.67,0 -35.22,0 -37.92,0 -78.56,-2.71 -119.2,-8.13 -40.64,-8.12 -81.28,-18.96 -121.91,-37.92 -40.64,-16.26 -78.57,-37.93 -113.79,-65.02 -35.22,-24.39 -62.31,-59.61 -86.69,-100.25 -35.22,-51.47 -51.48,-116.49 -54.19,-192.35l0 -16.25c0,-70.44 13.55,-130.04 43.35,-176.1 24.38,-46.06 65.02,-86.69 116.49,-121.91zm560.8 130.04c-24.39,-2.71 -48.77,-8.13 -78.57,-10.84 -29.8,-2.71 -62.31,-5.42 -92.11,-5.42 -24.38,0 -48.77,0 -73.15,2.71 -24.38,2.71 -46.06,8.13 -65.02,16.26 -46.06,13.54 -78.57,37.93 -102.95,67.73 -8.13,10.83 -16.26,21.67 -21.67,35.22 -5.42,13.54 -8.13,29.8 -10.84,46.05 -2.71,5.42 -2.71,13.55 -2.71,24.38 0,18.97 2.71,37.93 8.13,56.9 5.42,21.67 16.25,40.64 32.51,59.6 13.54,18.96 35.22,32.51 65.02,46.06 27.09,13.54 65.02,18.96 111.08,18.96 13.54,0 24.38,0 32.51,-2.71 51.47,-2.71 94.82,-16.25 132.75,-43.35 18.96,-10.83 32.51,-24.38 46.05,-40.63 13.55,-13.55 24.39,-29.8 32.51,-48.77 18.97,-35.22 32.51,-70.44 40.64,-105.66 8.13,-35.22 10.84,-70.44 10.84,-100.24 -2.71,0 -2.71,0 -2.71,-2.71 -2.71,0 -2.71,0 -5.42,0 -8.13,-2.71 -16.26,-2.71 -24.38,-5.42 -8.13,-2.7 -18.97,-5.41 -32.51,-8.12z"/>
   <path class="fil0" d="M8966.71 8590.14c-32.51,59.6 -70.44,100.24 -113.79,121.92 -43.34,21.67 -83.98,35.22 -121.91,37.92 -46.06,2.71 -89.4,-2.7 -135.46,-21.67 -13.55,-32.51 -32.51,-78.57 -56.89,-138.17 -24.39,-56.89 -51.48,-121.91 -81.28,-195.06 -29.8,-73.15 -62.31,-149.01 -94.82,-227.57 -35.22,-78.57 -65.02,-157.13 -94.82,-230.28 -29.8,-73.15 -56.9,-138.17 -81.28,-197.77 -24.38,-59.61 -43.35,-105.66 -56.89,-138.17 -8.13,-16.26 -13.55,-32.51 -21.68,-48.77 -8.12,-16.25 -13.54,-32.51 -18.96,-46.05 -8.13,-16.26 -13.55,-32.51 -18.96,-48.77 54.18,-13.55 105.65,-16.26 154.42,-13.55 40.64,2.71 83.98,16.26 127.33,35.22 40.64,21.68 75.86,62.31 100.24,119.21 8.13,18.96 18.97,46.05 32.51,78.56 13.55,35.22 27.09,70.44 43.35,111.08 13.55,40.64 29.8,81.28 48.76,124.62 16.26,43.35 32.52,86.7 48.77,130.05 37.93,100.24 78.57,205.89 124.62,322.39 43.35,-116.5 83.99,-222.15 124.63,-322.39 16.25,-43.35 32.51,-86.7 51.47,-130.05 18.97,-43.34 35.22,-83.98 51.48,-124.62 13.54,-40.64 27.09,-75.86 40.63,-111.08 13.55,-32.51 24.39,-59.6 32.51,-78.56 24.39,-56.9 56.9,-97.53 100.24,-119.21 43.35,-18.96 86.7,-32.51 127.34,-35.22 48.76,-2.71 100.24,0 154.42,13.55 -8.13,13.55 -13.55,29.8 -21.67,46.06 -5.42,13.54 -10.84,29.8 -18.97,46.05 -8.13,18.97 -13.54,35.22 -18.96,51.48 -13.55,35.22 -29.8,78.56 -51.48,132.75 -21.67,56.89 -43.34,116.49 -67.73,178.8 -24.38,65.02 -51.47,130.05 -78.56,197.78 -29.8,67.73 -56.9,132.75 -81.28,195.06 -24.38,62.31 -48.76,119.2 -70.44,167.97 -24.38,51.47 -43.35,89.4 -56.89,116.49z"/>
   <path class="fil0" d="M9791.37 7056.75c-37.93,62.31 -89.41,94.82 -157.14,94.82 -29.8,0 -56.89,-5.42 -81.27,-18.96 -27.09,-16.26 -48.77,-37.93 -62.31,-65.02 -13.55,-24.39 -21.68,-54.19 -21.68,-83.99 0,-35.22 8.13,-65.02 24.39,-92.11 16.25,-29.8 37.93,-54.19 67.73,-73.15 29.8,-16.25 59.6,-24.38 89.4,-24.38 27.09,0 54.18,8.13 78.57,21.67 29.8,13.55 51.47,35.22 65.02,62.31 13.54,27.09 21.67,56.9 21.67,86.7 0,32.51 -8.13,62.31 -24.38,92.11zm211.31 1397.92c-8.12,13.55 -24.38,21.68 -46.05,29.8 -21.68,8.13 -43.35,10.84 -65.02,8.13 -21.68,-2.71 -40.64,-16.25 -56.9,-35.22 -16.25,-18.96 -24.38,-48.76 -24.38,-92.11l0 -647.49c0,-54.18 0,-97.53 2.71,-132.75 0,-32.51 0,-59.6 2.71,-78.56 2.71,-21.68 2.71,-37.93 5.42,-51.48 -111.08,0 -197.77,24.38 -254.67,70.44 -56.89,46.06 -86.69,124.62 -86.69,232.99l-2.71 639.36c0,46.06 8.13,89.4 21.67,130.04 13.55,40.64 32.52,78.57 62.32,108.37 27.09,29.8 62.31,54.18 102.95,73.15 40.63,16.25 89.4,21.67 146.29,16.25 56.89,-2.71 100.24,-18.96 127.33,-51.47 27.1,-29.8 46.06,-59.6 54.19,-92.12 10.83,-37.92 13.54,-81.27 10.83,-127.33z"/>
   <path class="fil0" d="M10187.97 8007.67c48.77,-29.81 102.95,-54.19 165.26,-70.44 62.32,-13.55 124.63,-21.68 192.36,-21.68 94.82,0 184.22,13.55 268.21,40.64 -5.42,-56.89 -16.26,-105.66 -35.22,-149 -24.38,-56.9 -59.6,-97.54 -105.66,-121.92 -18.96,-8.13 -37.93,-16.25 -56.89,-21.67 -21.68,-2.71 -46.06,-5.42 -73.15,-5.42l-29.8 0c-24.39,2.71 -51.48,5.42 -75.86,10.84 -24.38,8.12 -51.47,16.25 -75.86,24.38 -24.38,8.13 -51.47,16.25 -75.86,21.67 -24.38,8.13 -48.76,10.84 -73.14,10.84 -24.39,0 -48.77,-5.42 -73.15,-16.26 -21.67,-13.54 -40.64,-32.51 -56.89,-62.31l-5.42 -10.83 5.42 -8.13c54.18,-56.89 119.2,-105.66 192.35,-140.88 73.15,-35.22 151.71,-54.18 238.41,-59.6 8.12,-2.71 16.25,-2.71 24.38,-2.71 5.42,0 13.55,0 21.67,0 83.99,0 159.85,13.55 227.58,43.35 67.73,29.8 127.33,73.14 178.8,124.62 102.95,111.08 157.14,260.08 159.84,441.6l0 21.67c0,186.94 -48.76,341.36 -143.58,457.85 -46.06,56.9 -102.95,105.66 -167.97,140.88 -67.73,35.22 -140.88,59.61 -222.16,67.73 -10.83,2.71 -21.67,2.71 -32.51,2.71 -10.83,0 -21.67,0 -35.22,0 -37.92,0 -78.56,-2.71 -119.2,-8.13 -40.64,-8.12 -81.28,-18.96 -121.91,-37.92 -40.64,-16.26 -78.57,-37.93 -113.79,-65.02 -35.22,-24.39 -62.31,-59.61 -86.69,-100.25 -35.22,-51.47 -51.48,-116.49 -54.19,-192.35l0 -16.25c0,-70.44 13.55,-130.04 43.35,-176.1 24.38,-46.06 65.02,-86.69 116.49,-121.91zm560.8 130.04c-24.39,-2.71 -48.77,-8.13 -78.57,-10.84 -29.8,-2.71 -62.31,-5.42 -92.11,-5.42 -24.38,0 -48.77,0 -73.15,2.71 -24.38,2.71 -46.06,8.13 -65.02,16.26 -46.06,13.54 -78.57,37.93 -102.95,67.73 -8.13,10.83 -16.26,21.67 -21.67,35.22 -5.42,13.54 -8.13,29.8 -10.84,46.05 -2.71,5.42 -2.71,13.55 -2.71,24.38 0,18.97 2.71,37.93 8.13,56.9 5.42,21.67 16.25,40.64 32.51,59.6 13.54,18.96 35.22,32.51 65.02,46.06 27.09,13.54 65.02,18.96 111.08,18.96 13.54,0 24.38,0 32.51,-2.71 51.47,-2.71 94.82,-16.25 132.75,-43.35 18.96,-10.83 32.51,-24.38 46.05,-40.63 13.55,-13.55 24.39,-29.8 32.51,-48.77 18.97,-35.22 32.51,-70.44 40.64,-105.66 8.13,-35.22 10.84,-70.44 10.84,-100.24 -2.71,0 -2.71,0 -2.71,-2.71 -2.71,0 -2.71,0 -5.42,0 -8.13,-2.71 -16.26,-2.71 -24.38,-5.42 -8.13,-2.7 -18.97,-5.41 -32.51,-8.12z"/>
   <path class="fil0" d="M11229.36 8045.59c0,-121.91 18.96,-219.44 54.18,-298.01 35.22,-75.85 78.57,-135.46 135.46,-178.8 56.89,-43.35 119.21,-73.15 189.64,-89.41 67.73,-13.54 138.17,-21.67 205.9,-21.67l132.75 0c8.13,37.93 10.84,73.15 5.42,105.66 -2.71,27.09 -16.25,54.18 -35.22,78.57 -21.67,24.38 -56.89,40.63 -102.95,46.05 -29.8,2.71 -59.6,10.84 -89.4,18.97 -29.8,10.83 -56.89,27.09 -81.28,51.47 -24.38,24.38 -43.34,59.6 -56.89,105.66 -16.25,46.06 -24.38,105.66 -24.38,181.51l0 392.84c0,54.18 0,97.53 2.71,130.04 0,35.22 0,62.31 2.71,81.27 2.71,21.68 2.71,37.93 5.42,48.77 -111.08,0 -195.07,-24.38 -254.67,-70.44 -59.6,-46.06 -89.4,-121.91 -89.4,-230.28l0 -352.2z"/>
   <path class="fil0" d="M12926.36 8435.72c21.67,13.54 43.34,35.22 62.31,65.02l8.13 8.13 -8.13 8.12c-59.6,65.02 -130.04,116.5 -211.32,151.72 -83.98,37.93 -173.39,56.89 -268.21,56.89 -83.98,0 -159.84,-16.25 -232.99,-51.47 -73.15,-32.51 -138.17,-78.57 -195.06,-138.17 -54.18,-56.89 -97.53,-127.33 -127.33,-205.9 -32.51,-78.57 -48.77,-162.55 -48.77,-251.96 0,-89.4 13.55,-176.09 43.35,-254.66 27.09,-78.57 67.73,-146.3 119.2,-205.9 51.48,-56.89 116.5,-102.95 192.36,-138.17 73.14,-35.22 157.13,-51.47 249.24,-51.47 51.48,0 105.66,8.13 167.97,21.67 59.6,16.26 116.5,40.64 167.97,73.15 51.48,35.22 94.82,78.57 130.04,132.75 35.22,54.18 51.48,119.21 51.48,195.06 0,73.15 -18.97,132.75 -56.9,178.81 -37.92,46.06 -83.98,83.98 -135.46,108.37 -51.47,27.09 -108.36,46.05 -165.26,54.18 -59.6,10.84 -111.07,16.26 -154.42,16.26 -67.73,0 -124.62,-5.42 -173.39,-13.55 -51.47,-8.13 -83.98,-13.55 -102.95,-16.25 8.13,65.02 21.68,116.49 43.35,157.13 21.67,40.64 46.06,73.15 73.15,97.53 27.09,24.38 54.18,37.93 81.27,46.06 27.1,8.12 51.48,13.54 73.15,13.54 37.93,0 73.15,-2.71 108.37,-10.84 35.22,-8.12 65.02,-16.25 92.11,-24.38 27.09,-8.13 54.19,-18.96 78.57,-27.09 24.38,-8.13 46.05,-13.55 70.44,-13.55 24.38,0 48.76,5.42 67.73,18.97zm-417.22 -777.53c-18.96,2.71 -43.35,5.42 -70.44,13.55 -27.09,8.12 -54.18,24.38 -78.56,46.05 -27.1,21.68 -51.48,51.48 -73.15,92.11 -21.68,40.64 -37.93,89.41 -46.06,151.72 29.8,8.13 70.44,16.25 124.62,24.38 51.48,8.13 105.66,10.84 159.85,5.42 51.47,-5.42 100.24,-21.67 140.87,-46.06 40.64,-24.38 62.32,-67.73 65.03,-127.33 2.7,-46.05 -13.55,-83.98 -51.48,-116.49 -40.64,-32.51 -97.53,-46.06 -170.68,-43.35z"/>
   <path class="fil1" d="M10350.57 9390.52c-27.31,0 -51.41,-3.21 -73.11,-9.64 -21.69,-6.42 -40.97,-14.46 -56.24,-23.3 -15.26,-8.83 -28.11,-17.67 -36.95,-26.51 -9.64,-8.84 -15.27,-16.07 -17.68,-21.69l2.41 -2.41c4.82,-7.23 10.45,-12.86 16.07,-16.87 5.62,-3.22 11.25,-4.82 16.87,-4.82 4.02,0 7.23,0.8 11.25,1.6 3.21,0.81 7.23,2.41 11.25,4.02 4.02,0.8 8.84,2.41 12.85,4.02 4.02,2.41 8.84,4.82 14.46,7.23 10.45,4.02 23.3,8.03 37.77,11.25 14.46,4.01 32.13,6.42 52.22,7.23l8.83 0c20.09,0 36.96,-2.41 50.62,-7.23 13.66,-4.02 24.91,-10.45 33.74,-17.68 8.84,-7.23 14.46,-15.26 18.48,-24.1 4.02,-8.84 5.63,-16.87 5.63,-24.91 0.8,-13.66 -3.22,-26.51 -12.06,-38.56 -8.83,-11.25 -21.69,-22.5 -36.95,-32.94 -15.27,-10.45 -33.75,-21.69 -54.63,-32.94 -20.89,-11.25 -43.39,-23.3 -66.69,-36.16 -38.56,-21.69 -67.49,-46.59 -85.96,-73.91 -18.48,-26.51 -26.52,-55.44 -24.11,-85.16 2.41,-22.5 8.04,-41.78 18.48,-58.65 10.45,-16.87 23.3,-30.53 38.57,-41.78 15.26,-10.44 32.13,-18.48 51.41,-24.1 18.48,-4.82 37.77,-7.23 57.05,-7.23 32.94,0 61.06,4.02 85.96,12.85 24.91,8.84 45.8,17.68 62.67,28.12 20.08,12.05 36.96,24.91 50.61,40.17l-1.6 2.41c-6.43,8.04 -12.05,13.66 -16.07,16.07 -5.62,4.02 -11.25,5.63 -17.68,5.63 -5.62,0 -12.85,-1.61 -21.69,-5.63 -4.01,-1.61 -8.84,-3.21 -12.85,-5.62 -4.82,-1.61 -9.64,-3.22 -15.27,-5.63 -15.26,-5.62 -32.13,-10.44 -49.01,-14.46 -17.67,-3.21 -32.94,-4.82 -46.59,-4.01 -7.23,0 -14.47,0.8 -22.5,1.6 -8.03,0.81 -15.26,3.22 -22.5,5.63 -7.23,2.41 -13.65,6.42 -19.28,11.24 -5.62,4.82 -9.64,11.25 -12.05,18.48 -4.82,16.07 -1.61,30.53 10.45,42.58 11.24,12.05 26.51,24.11 46.59,36.16 19.29,12.05 40.98,23.3 65.08,34.54 23.3,12.06 45.8,24.91 66.68,39.37 28.93,20.09 50.62,40.98 65.08,61.86 13.66,21.7 22.5,42.59 25.71,62.67 3.21,20.09 2.41,40.17 -3.21,58.65 -5.63,18.48 -12.86,35.35 -22.5,49.81 -16.87,26.52 -42.58,47.4 -76.32,61.06 -34.55,14.46 -72.31,21.69 -113.29,21.69z"/>
   <path class="fil1" d="M11145.99 9337.5c2.41,5.62 4.02,10.44 6.43,15.26 2.41,4.82 4.01,9.64 5.62,13.66 2.41,4.82 4.02,9.64 5.62,14.46 -16.06,4.02 -31.33,5.63 -45.79,4.02 -12.05,-0.8 -24.91,-4.82 -36.96,-11.25 -12.85,-6.42 -22.49,-18.48 -29.72,-35.35 -3.22,-7.23 -8.84,-22.49 -17.68,-44.19 -8.84,-21.69 -18.48,-47.4 -30.53,-77.12l-228.17 0c-12.05,29.72 -21.69,55.43 -30.53,77.12 -8.84,21.7 -14.46,36.96 -17.67,44.19 -7.24,16.87 -17.68,28.93 -29.73,35.35 -12.05,6.43 -24.91,10.45 -36.96,11.25 -14.46,1.61 -29.72,0 -45.79,-4.02 1.6,-4.82 3.21,-9.64 5.62,-14.46 1.61,-4.02 3.21,-8.84 5.62,-13.66 1.61,-4.82 4.02,-9.64 6.43,-15.26 4.02,-9.64 10.45,-26.51 20.09,-49.81 8.84,-23.3 20.08,-50.62 32.13,-81.15 12.06,-30.53 25.71,-62.66 39.37,-96.41 13.66,-33.74 26.51,-65.88 38.57,-96.41 12.05,-30.53 22.49,-57.84 32.13,-81.14 9.64,-23.3 16.07,-39.37 20.09,-49.01 5.62,-15.27 12.05,-27.32 19.28,-36.16 6.43,-8.83 12.85,-15.26 19.28,-20.08 6.43,-4.82 12.86,-8.03 19.28,-9.64 5.63,-0.8 11.25,-1.61 16.88,-1.61 5.62,0 11.24,0.81 17.67,1.61 5.62,1.61 12.05,4.82 18.48,9.64 6.43,4.82 12.85,11.25 20.08,20.08 6.43,8.84 12.86,20.89 18.48,36.16 4.02,9.64 10.45,25.71 20.09,49.01 8.84,23.3 20.08,50.61 32.14,81.14 12.05,30.53 25.7,62.67 39.36,96.41 13.66,33.75 26.52,65.88 38.57,96.41 12.05,30.53 23.3,57.85 32.94,81.15 8.83,23.3 15.26,40.17 19.28,49.81zm-173.54 -200.05c-10.44,-26.51 -20.89,-53.03 -31.33,-78.74 -10.45,-24.9 -19.28,-48.2 -26.52,-68.29 -9.64,-23.3 -18.47,-45.79 -25.7,-67.48 -8.84,21.69 -17.68,44.18 -26.52,67.48 -8.03,20.09 -16.87,43.39 -26.51,68.29 -9.64,25.71 -20.09,52.23 -30.53,78.74l167.11 0z"/>
   <path class="fil1" d="M11787.13 9298.13l0 5.63c0,18.47 -3.21,32.13 -9.64,42.58 -5.62,10.44 -13.66,18.47 -24.9,24.1 -10.45,5.62 -21.7,8.84 -34.55,9.64 -13.66,0.8 -25.71,1.61 -36.15,2.41 -49.01,2.41 -90.79,-0.8 -125.34,-8.03 -35.35,-7.23 -64.27,-20.89 -86.77,-40.98 -23.3,-20.08 -40.17,-48.2 -50.61,-83.55 -11.25,-34.55 -16.87,-78.74 -16.87,-131.76l0 -151.85c0,-36.15 5.62,-65.08 16.87,-85.97 5.62,-10.44 12.85,-19.28 20.89,-25.7 8.03,-6.43 17.67,-12.06 28.12,-16.07 7.23,-2.41 14.46,-4.82 21.69,-7.23 7.23,-1.61 15.26,-3.22 24.1,-4.02 11.25,-0.8 23.3,-1.61 35.35,-2.41 12.05,-0.8 24.91,-0.8 38.57,-0.8l70.7 0c34.54,0 58.65,-0.81 73.91,-1.61 15.27,-0.8 24.91,-1.61 28.92,-2.41l1.61 0 4.82 0 0 4.82c0,18.48 -3.21,32.14 -9.64,42.58 -5.62,10.44 -14.46,18.48 -24.91,24.91 -10.44,5.62 -21.69,8.83 -33.74,9.64 -12.05,0.8 -24.91,1.6 -36.96,1.6l-136.58 0c-3.21,0.81 -5.62,0.81 -8.03,1.61 -2.41,0.8 -4.02,1.61 -5.63,2.41 -3.21,1.61 -5.62,4.02 -7.23,6.43 -2.41,2.41 -3.21,6.43 -4.01,10.44 -0.81,4.82 -0.81,10.45 -0.81,16.07l2.41 98.02 197.64 0c0,24.1 -6.42,43.38 -20.08,57.84 -13.66,14.47 -32.14,21.7 -57.04,21.7l-121.32 0c-0.8,36.15 1.61,65.88 7.23,89.18 5.62,24.1 15.27,43.38 28.92,57.04 12.86,13.66 29.73,24.1 51.42,29.72 20.89,5.63 45.8,8.84 75.52,8.84 34.55,0 61.87,-0.8 81.15,-1.61 18.48,-0.8 30.53,-1.6 34.55,-2.41l1.6 0 4.82 -0.8z"/>
   <path class="fil1" d="M12016.94 9390.52c-27.31,0 -51.41,-3.21 -73.11,-9.64 -21.69,-6.42 -40.97,-14.46 -56.24,-23.3 -15.26,-8.83 -28.11,-17.67 -36.95,-26.51 -9.64,-8.84 -15.27,-16.07 -17.68,-21.69l2.41 -2.41c4.82,-7.23 10.45,-12.86 16.07,-16.87 5.62,-3.22 11.25,-4.82 16.87,-4.82 4.02,0 7.23,0.8 11.25,1.6 3.21,0.81 7.23,2.41 11.25,4.02 4.02,0.8 8.84,2.41 12.85,4.02 4.02,2.41 8.84,4.82 14.46,7.23 10.45,4.02 23.3,8.03 37.77,11.25 14.46,4.01 32.13,6.42 52.22,7.23l8.83 0c20.09,0 36.96,-2.41 50.62,-7.23 13.66,-4.02 24.91,-10.45 33.74,-17.68 8.84,-7.23 14.46,-15.26 18.48,-24.1 4.02,-8.84 5.63,-16.87 5.63,-24.91 0.8,-13.66 -3.22,-26.51 -12.06,-38.56 -8.83,-11.25 -21.69,-22.5 -36.95,-32.94 -15.27,-10.45 -33.75,-21.69 -54.63,-32.94 -20.89,-11.25 -43.39,-23.3 -66.69,-36.16 -38.56,-21.69 -67.49,-46.59 -85.96,-73.91 -18.48,-26.51 -26.52,-55.44 -24.11,-85.16 2.41,-22.5 8.04,-41.78 18.48,-58.65 10.45,-16.87 23.3,-30.53 38.57,-41.78 15.26,-10.44 32.13,-18.48 51.41,-24.1 18.48,-4.82 37.77,-7.23 57.05,-7.23 32.94,0 61.06,4.02 85.96,12.85 24.91,8.84 45.8,17.68 62.67,28.12 20.08,12.05 36.96,24.91 50.61,40.17l-1.6 2.41c-6.43,8.04 -12.05,13.66 -16.07,16.07 -5.62,4.02 -11.25,5.63 -17.68,5.63 -5.62,0 -12.85,-1.61 -21.69,-5.63 -4.01,-1.61 -8.84,-3.21 -12.85,-5.62 -4.82,-1.61 -9.64,-3.22 -15.27,-5.63 -15.26,-5.62 -32.13,-10.44 -49.01,-14.46 -17.67,-3.21 -32.94,-4.82 -46.59,-4.01 -7.23,0 -14.47,0.8 -22.5,1.6 -8.03,0.81 -15.26,3.22 -22.5,5.63 -7.23,2.41 -13.65,6.42 -19.28,11.24 -5.62,4.82 -9.64,11.25 -12.05,18.48 -4.82,16.07 -1.61,30.53 10.45,42.58 11.24,12.05 26.51,24.11 46.59,36.16 19.29,12.05 40.98,23.3 65.08,34.54 23.3,12.06 45.8,24.91 66.68,39.37 28.93,20.09 50.62,40.98 65.08,61.86 13.66,21.7 22.5,42.59 25.71,62.67 3.21,20.09 2.41,40.17 -3.21,58.65 -5.63,18.48 -12.86,35.35 -22.5,49.81 -16.87,26.52 -42.58,47.4 -76.32,61.06 -34.55,14.46 -72.31,21.69 -113.29,21.69z"/>
   <path class="fil1" d="M12412.27 9304.56c0,16.87 0,29.73 0.8,39.37 0,10.44 0,18.47 0.8,24.1 0.81,6.43 0.81,11.25 1.61,14.46 -32.94,0 -57.84,-7.23 -75.52,-20.89 -18.48,-13.66 -27.32,-36.15 -27.32,-68.29l1.61 -339.84c0,-25.71 4.82,-47.41 13.66,-64.28 8.84,-16.87 21.69,-31.33 37.76,-41.78 16.07,-10.44 35.35,-17.67 57.04,-22.49 21.69,-4.02 44.99,-7.23 70.7,-8.84 24.91,-1.61 51.42,0 79.54,5.63 28.12,5.62 53.83,15.26 77.93,28.92 24.1,14.46 44.19,33.74 61.06,57.84 16.07,24.11 24.91,54.64 26.51,91.59 0.81,22.5 -1.6,45.8 -8.03,69.1 -7.23,24.1 -18.48,45.79 -33.74,65.07 -15.27,19.29 -36.16,35.35 -61.87,47.41 -25.71,12.85 -57.04,19.28 -94,19.28 -18.47,0 -34.54,-0.81 -49.81,-3.22 -15.26,-2.41 -28.92,-4.82 -40.97,-7.23 -13.66,-3.21 -26.51,-7.23 -37.76,-11.24l0 125.33zm110.87 -182.38c34.55,0 62.67,-10.44 84.36,-30.53 21.69,-20.08 31.33,-50.61 29.72,-91.59 -0.8,-21.69 -5.62,-39.36 -13.65,-53.82 -8.84,-14.47 -19.29,-25.71 -32.14,-33.75 -13.66,-8.03 -28.92,-13.66 -45.8,-16.07 -16.87,-2.41 -34.54,-3.21 -52.22,-1.6 -16.07,1.6 -28.92,4.01 -39.37,8.03 -10.44,4.02 -18.47,8.84 -24.1,14.46 -6.42,5.63 -10.44,12.05 -12.85,19.28 -2.41,7.23 -4.02,13.66 -4.02,20.89l0 141.4c9.64,4.02 20.09,8.04 32.14,11.25 10.44,2.41 21.69,5.63 35.35,8.04 12.85,2.41 27.31,4.01 42.58,4.01z"/>
   <path class="fil2" d="M4510.56 6911.29c110.75,-212.47 228.09,-458.44 338.84,-670.89 -113.36,9.76 -244.13,36.2 -357.14,40.73 34.07,-202.36 256.09,-310.76 513.28,-367.22 269.52,-522.18 496.03,-1108.87 715.81,-1705.66 -65.73,-6.57 -131.47,-13.15 -197.2,-19.72 -34.03,-1.8 -50.24,-44.71 -15.77,-67.05 98.59,-64.42 205.84,-116.95 304.44,-181.37 113.71,-326.14 179.03,-672.3 241.16,-1018.8 -101.13,-41.31 -58.49,-60.64 35.07,-131.48 27.15,-252.3 71.42,-513.13 98.58,-765.43 -304.91,107.98 -611.09,266.22 -880.43,403.84 -116.65,-14.44 -203.14,-26.92 -306.86,-48.25 350.82,-236.05 779.02,-416.69 1200.85,-563.96 7.07,-168.83 2.08,-335.64 8.12,-504.28 1.99,-56.45 55.28,-58.62 60.35,7.61 11.93,155.1 23.86,310.21 35.8,465.31 138.47,-34.3 276.94,-68.6 415.41,-102.9 -20.33,-188.01 -27.53,-391.78 -47.85,-579.78 -381.4,53.15 -896.55,208.35 -1459.63,392.85 -73.14,23.96 -96.4,29.6 -174.48,33.35 -49.46,2.38 -100.81,0.58 -115.9,-19.43 -30.56,-40.47 60.33,-71.81 84.87,-82.23 509.43,-216.22 1052.66,-352.38 1646.2,-471.87 -27.97,-286.29 -38.83,-559.4 -22.89,-838.53 1.85,-32.57 0.08,-58.93 22.98,-85.49 26.34,-30.56 70.79,-39.51 99.59,-21.08 30.8,19.7 23.45,45.72 21.85,76.61 -14.72,281.61 -8.02,563.22 6.23,844.84 333.31,-47.21 633.18,-88.21 955.85,-91.34 65.19,-6.19 79.06,48.27 17.75,66.92 -317.81,58.99 -636.32,107.36 -954.09,167.1 22.45,189.76 45.7,391.67 68.15,581.41 372.55,-51.22 745.11,-102.45 1117.66,-153.68 121.82,-16.74 119.56,-18.78 2.15,12.9 -366.92,99.01 -746.7,198.02 -1113.62,297.04l31.32 163.69 49.21 -60.72 -0.87 37.3 -40.36 64.5c123.61,625.33 267.09,1248.13 444.55,1869.87 114.57,-11.32 336.54,-88.3 407.23,-13.06 45.4,48.32 30.18,137.18 -6.54,227.13 -64.96,157.95 -182.2,332.61 -210.12,372.71 223.57,858.62 576.65,1691.73 984.4,2424.34 -216.14,-2.39 -425.02,-15.69 -641.15,-18.08 -212.44,-661.73 -417.24,-1381.82 -571.52,-2072.62 -649.3,726.83 -1355.62,1108.96 -2065.1,1330.21 -98.19,272.74 -180.94,540.8 -279.13,813.55 -155.68,-22.21 -311.36,-16.67 -467.03,-38.87zm2888.4 -2883.1c34.36,-9.96 66.95,-16.86 100.88,-15.59 86.5,3.22 87.15,28.9 73.76,108.84 -13.1,78.16 -52.89,140.3 -87.74,203.14 -28.96,-98.79 -57.93,-197.59 -86.9,-296.39zm-1991.28 1713.42c168.95,-518.08 345.87,-1030.86 514.81,-1548.94 404.06,-46.47 821.74,-85.64 1225.8,-132.1 49.27,195.69 76.94,378.78 126.21,574.47 -577.53,523.38 -1202.28,883.72 -1866.82,1106.57zm629.64 -1933.4c52.5,-267.98 111.35,-542.28 163.85,-810.26 183.48,55.53 384.35,112.64 567.82,168.17 -159.09,289.35 -432.56,492.77 -731.67,642.09zm1070.12 102.75c-351.95,37.77 -734.72,65.01 -1090.66,66.88 343.67,-221.72 700.27,-466.62 899.65,-864.69 -225.71,-91.7 -472.47,-177.33 -700.73,-263.29 202.2,-196.7 411.14,-412.79 574.14,-639.94 104.11,562.78 213.48,1138.25 317.6,1701.04zm-861.41 -1238.78c15.19,-219.73 35.05,-455.78 50.25,-675.5 149.02,-50.84 298.04,-101.68 447.06,-152.52 12.27,92.91 24.54,185.83 36.81,278.75 -170.73,202.56 -354.03,387.24 -534.11,549.27z"/>
  </g>
 </g>
</svg>
