<?xml version="1.0" encoding="UTF-8"?>
<!DOCTYPE svg PUBLIC "-//W3C//DTD SVG 1.1//EN" "http://www.w3.org/Graphics/SVG/1.1/DTD/svg11.dtd">
<!-- Creator: CorelDRAW -->
<svg xmlns="http://www.w3.org/2000/svg" xml:space="preserve" width="148.876mm" height="44.9319mm" version="1.1" style="shape-rendering:geometricPrecision; text-rendering:geometricPrecision; image-rendering:optimizeQuality; fill-rule:evenodd; clip-rule:evenodd"
viewBox="0 0 9410.04 2840.01"
 xmlns:xlink="http://www.w3.org/1999/xlink"
 xmlns:xodm="http://www.corel.com/coreldraw/odm/2003">
 <defs>
  <style type="text/css">
   <![CDATA[
    .fil2 {fill:#94BC49}
    .fil1 {fill:#94BC49;fill-rule:nonzero}
    .fil0 {fill:#1698D4;fill-rule:nonzero}
   ]]>
  </style>
 </defs>
 <g id="Capa_x0020_1">
  <metadata id="CorelCorpID_0Corel-Layer"/>
  <g id="_2145313539152">
   <path class="fil0" d="M2278.36 2062.8l0 11.54c0,37.89 -6.59,65.89 -19.76,87.3 -11.54,21.41 -28.01,37.89 -51.06,49.42 -21.41,11.53 -44.48,18.12 -70.84,19.76 -28,1.65 -52.71,3.29 -74.13,4.94 -100.48,4.94 -186.14,-1.65 -256.97,-16.47 -72.48,-14.83 -131.79,-42.83 -177.91,-84.01 -47.77,-41.19 -82.37,-98.84 -103.78,-171.32 -23.06,-70.84 -34.59,-161.44 -34.59,-270.15l0 -311.33c0,-74.13 11.53,-133.43 34.59,-176.26 11.54,-21.41 26.36,-39.54 42.83,-52.71 16.48,-13.18 36.24,-24.71 57.66,-32.94 14.83,-4.94 29.65,-9.89 44.48,-14.83 14.82,-3.29 31.29,-6.59 49.42,-8.24 23.06,-1.64 47.77,-3.29 72.48,-4.94 24.71,-1.64 51.06,-1.64 79.07,-1.64l144.96 0c70.83,0 120.24,-1.65 151.55,-3.29 31.3,-1.65 51.06,-3.3 59.3,-4.94l3.3 0 9.88 0 0 9.88c0,37.89 -6.59,65.89 -19.76,87.31 -11.53,21.41 -29.65,37.89 -51.06,51.06 -21.41,11.53 -44.48,18.12 -69.19,19.76 -24.71,1.65 -51.06,3.3 -75.77,3.3l-280.04 0c-6.59,1.64 -11.53,1.64 -16.47,3.29 -4.94,1.65 -8.24,3.29 -11.53,4.94 -6.59,3.29 -11.54,8.24 -14.83,13.18 -4.94,4.94 -6.59,13.18 -8.24,21.41 -1.64,9.88 -1.64,21.41 -1.64,32.94l4.94 200.97 405.23 0c0,49.42 -13.18,88.95 -41.19,118.6 -28,29.65 -65.89,44.48 -116.95,44.48l-248.74 0c-1.65,74.12 3.29,135.07 14.82,182.85 11.54,49.42 31.3,88.95 59.3,116.96 26.36,28 60.95,49.42 105.43,60.94 42.83,11.54 93.89,18.12 154.84,18.12 70.83,0 126.84,-1.64 166.37,-3.29 37.89,-1.65 62.59,-3.29 70.83,-4.94l3.29 0 9.89 -1.65z"/>
   <path class="fil0" d="M2293.85 1820.65c0,-74.13 11.54,-133.43 32.94,-181.2 21.41,-46.13 47.77,-82.37 82.37,-108.72 32.95,-26.36 70.84,-44.48 113.67,-54.36 41.18,-8.24 84.01,-13.18 126.84,-13.18 41.18,0 84.01,4.94 126.84,13.18 42.83,9.88 82.37,28 116.96,54.36 34.59,26.36 62.59,62.59 84.01,108.72 21.41,47.77 31.3,107.07 31.3,181.2l6.59 415.11c-67.54,0 -118.6,-14.83 -154.84,-42.83 -36.24,-28 -54.36,-75.77 -54.36,-140.02l1.65 -232.27c0,-46.12 -4.94,-84.01 -13.18,-112.02 -9.89,-28 -23.06,-49.42 -37.89,-65.89 -14.83,-14.83 -32.94,-26.36 -51.06,-31.3 -18.12,-4.94 -37.89,-8.24 -56.01,-8.24 -18.12,0 -36.24,3.29 -54.36,8.24 -18.12,4.94 -34.59,16.47 -49.42,31.3 -14.82,16.47 -28,37.89 -36.24,65.89 -9.89,28.01 -14.83,65.89 -14.83,112.02l0 255.32c1.65,32.95 1.65,59.31 3.29,80.72 0,21.41 0,37.89 1.65,49.42 1.65,13.18 1.65,23.06 3.29,29.65 -67.54,0 -120.25,-14.83 -156.49,-42.83 -36.24,-28 -54.36,-75.77 -54.36,-140.02l1.64 -232.27z"/>
   <path class="fil0" d="M3699.63 2075.98c13.18,8.24 26.36,21.41 37.89,39.54l4.94 4.94 -4.94 4.94c-36.24,39.54 -79.07,70.83 -128.49,92.24 -51.06,23.06 -105.42,34.59 -163.07,34.59 -51.06,0 -97.19,-9.89 -141.67,-31.3 -44.48,-19.76 -84.01,-47.77 -118.61,-84.01 -32.94,-34.59 -59.3,-77.42 -77.42,-125.19 -19.77,-47.77 -29.65,-98.83 -29.65,-153.19 0,-54.36 8.24,-107.07 26.35,-154.84 16.47,-47.77 41.19,-88.95 72.48,-125.19 31.3,-34.59 70.84,-62.6 116.96,-84.01 44.48,-21.41 95.54,-31.29 151.55,-31.29 31.29,0 64.24,4.94 102.13,13.18 36.24,9.88 70.83,24.71 102.13,44.47 31.29,21.41 57.65,47.77 79.07,80.72 21.41,32.95 31.3,72.48 31.3,118.61 0,44.47 -11.53,80.72 -34.59,108.72 -23.06,28.01 -51.06,51.06 -82.37,65.89 -31.29,16.47 -65.89,28 -100.48,32.94 -36.24,6.59 -67.54,9.89 -93.89,9.89 -41.19,0 -75.77,-3.29 -105.43,-8.24 -31.29,-4.94 -51.06,-8.24 -62.59,-9.89 4.94,39.54 13.18,70.83 26.36,95.54 13.18,24.71 28,44.47 44.48,59.3 16.47,14.82 32.94,23.06 49.42,28 16.47,4.94 31.3,8.24 44.48,8.24 23.06,0 44.47,-1.64 65.89,-6.59 21.41,-4.94 39.54,-9.89 56.01,-14.83 16.47,-4.94 32.94,-11.53 47.77,-16.47 14.82,-4.94 28,-8.24 42.83,-8.24 14.82,0 29.65,3.29 41.18,11.53zm-253.67 -472.76c-11.54,1.65 -26.36,3.29 -42.83,8.24 -16.48,4.94 -32.95,14.83 -47.77,28.01 -16.47,13.17 -31.3,31.29 -44.48,56 -13.18,24.71 -23.06,54.36 -28,92.25 18.12,4.94 42.83,9.89 75.77,14.82 31.3,4.94 64.24,6.59 97.19,3.3 31.3,-3.3 60.95,-13.18 85.66,-28.01 24.71,-14.82 37.89,-41.18 39.54,-77.42 1.65,-28 -8.24,-51.06 -31.3,-70.83 -24.71,-19.77 -59.3,-28.01 -103.77,-26.36z"/>
   <path class="fil0" d="M3825.48 1838.77c0,-74.13 11.53,-133.43 32.94,-181.2 21.41,-46.12 47.77,-82.36 82.37,-108.72 34.59,-26.36 72.48,-44.48 115.31,-54.36 41.18,-8.24 84.01,-13.17 125.19,-13.17l80.72 0c4.94,23.06 6.59,44.47 3.3,64.24 -1.65,16.48 -9.89,32.95 -21.41,47.77 -13.18,14.83 -34.59,24.71 -62.6,28.01 -18.12,1.64 -36.24,6.59 -54.36,11.53 -18.12,6.59 -34.59,16.47 -49.42,31.3 -14.83,14.82 -26.36,36.24 -34.59,64.24 -9.89,28 -14.83,64.24 -14.83,110.37l0 238.85c0,32.94 0,59.3 1.65,79.07 0,21.41 0,37.89 1.64,49.42 1.65,13.18 1.65,23.06 3.3,29.65 -67.54,0 -118.61,-14.83 -154.84,-42.83 -36.24,-28 -54.36,-74.13 -54.36,-140.02l0 -214.15z"/>
   <path class="fil0" d="M4437.28 2216c49.42,-14.83 102.13,-26.36 159.78,-32.95 57.66,-4.94 110.37,-1.64 159.79,9.89 47.77,11.53 88.95,34.59 120.25,69.19 31.29,34.59 47.77,82.37 47.77,146.61 0,47.77 -9.88,88.95 -31.29,123.54 -18.12,31.29 -44.48,59.3 -77.42,82.36 -31.3,21.41 -65.89,36.24 -100.49,44.48 -34.59,8.24 -67.54,13.18 -97.19,13.18l-14.82 0c-51.06,-1.65 -97.19,-13.18 -138.37,-32.94 -41.18,-19.77 -79.07,-46.13 -110.37,-80.72 -31.3,-34.59 -54.36,-75.77 -72.48,-121.89 -18.12,-47.77 -29.65,-100.49 -31.3,-159.79 -1.64,-4.94 -1.64,-8.24 -1.64,-13.18 0,-4.94 0,-8.24 0,-13.17 0,-62.6 11.53,-118.61 32.94,-169.67 21.41,-51.06 52.71,-92.24 92.24,-125.19 -34.59,-26.36 -62.59,-59.31 -82.37,-97.19 -21.41,-37.89 -31.29,-79.07 -31.29,-123.54 0,-41.18 8.24,-79.07 26.36,-113.66 18.12,-34.59 41.18,-65.89 72.48,-90.6 31.29,-26.36 65.89,-47.77 107.07,-62.59 41.18,-14.83 84.01,-21.41 130.13,-21.41 51.06,0 98.84,6.59 140.02,21.41 41.19,14.82 75.78,36.24 103.78,62.59 60.95,52.71 92.25,120.25 92.25,204.26 0,37.89 -8.24,75.77 -24.71,110.37 -18.12,34.59 -41.18,65.89 -70.83,90.6 -28.01,24.71 -60.95,44.48 -98.84,59.3 -37.89,14.83 -79.07,24.71 -121.89,26.36l0 1.65 -9.89 0c-36.24,0 -65.89,6.59 -87.31,18.12 -21.41,11.54 -39.53,26.36 -51.06,47.77 -11.53,18.12 -19.76,39.54 -24.71,65.89 -4.94,26.36 -6.59,46.12 -6.59,60.95zm159.78 -629.26c-9.89,0 -21.41,1.64 -36.24,4.94 -14.83,4.94 -28.01,11.53 -39.54,23.06 -13.18,11.54 -24.71,26.36 -32.94,44.48 -8.24,19.76 -13.18,44.47 -13.18,75.77 0,31.3 4.94,56.01 13.18,74.13 8.24,19.76 19.76,34.59 32.94,44.47 11.53,11.54 24.71,18.12 39.54,21.41 14.82,4.94 26.35,6.59 36.24,6.59 11.53,0 23.06,-1.65 37.89,-6.59 14.83,-3.29 28.01,-9.88 41.19,-21.41 11.53,-9.88 23.06,-24.71 31.29,-44.47 8.24,-18.12 13.18,-42.83 13.18,-74.13 0,-31.3 -4.94,-56.01 -13.18,-75.77 -8.24,-18.12 -19.76,-32.94 -31.29,-44.48 -13.18,-11.53 -26.36,-18.12 -41.19,-23.06 -14.82,-3.3 -26.36,-4.94 -37.89,-4.94zm138.37 904.35c11.53,-11.53 18.12,-23.06 21.41,-34.59 3.29,-13.18 4.94,-26.35 4.94,-37.89 0,-11.53 0,-18.12 -1.65,-21.41 -3.29,-14.82 -9.89,-29.65 -18.12,-42.83 -8.24,-9.88 -18.12,-18.12 -32.94,-26.36 -14.83,-6.59 -29.65,-11.53 -46.12,-13.17 -16.47,-3.3 -32.95,-4.94 -51.06,-4.94 -18.12,0 -34.59,1.64 -52.71,3.29 -18.12,1.65 -34.59,4.94 -49.42,8.24 -14.83,1.65 -28.01,4.94 -39.54,8.24 -11.53,3.29 -21.41,4.94 -26.36,6.59 1.65,13.18 4.94,28.01 8.24,42.83 3.29,14.83 8.24,31.3 14.83,46.13 8.24,18.12 16.47,34.59 28,49.42 11.53,14.83 24.71,26.36 41.18,34.59 23.06,14.83 51.06,21.41 82.37,21.41 31.3,0 57.66,-3.29 75.77,-11.53 18.12,-8.24 31.3,-16.47 41.19,-28.01z"/>
   <path class="fil0" d="M5707.98 1896.42c0,74.13 -11.53,133.43 -32.94,179.55 -21.41,46.13 -49.42,82.37 -84.01,108.72 -34.59,26.36 -74.13,44.48 -116.96,54.36 -42.83,9.89 -85.66,14.83 -126.84,14.83 -41.19,0 -84.01,-4.94 -126.84,-14.83 -42.83,-9.88 -80.72,-28 -115.31,-54.36 -34.59,-26.36 -62.59,-62.59 -84.01,-108.72 -21.41,-46.12 -32.94,-105.42 -32.94,-179.55l1.64 -232.26c0,-65.89 18.12,-113.67 54.36,-141.67 34.59,-28.01 87.31,-41.18 154.84,-41.18 -1.64,6.59 -1.64,16.47 -3.29,29.65 -1.65,11.53 -1.65,28 -1.65,49.42 -1.64,21.41 -1.64,47.77 -1.64,80.72l1.64 255.32c0,46.13 4.94,82.37 13.18,110.37 8.24,28 21.41,51.06 36.24,65.89 14.82,14.83 31.3,26.36 49.42,31.3 18.12,4.94 36.24,8.24 54.36,8.24 18.12,0 37.89,-3.29 56,-8.24 18.12,-4.94 34.59,-16.47 49.42,-31.3 14.82,-14.82 26.36,-37.89 34.59,-65.89 8.24,-28.01 13.18,-64.24 13.18,-110.37l1.64 -232.26c0,-65.89 18.12,-113.67 54.36,-141.67 36.24,-28.01 88.95,-41.18 156.49,-41.18 -1.65,6.59 -1.65,16.47 -3.29,29.65 -1.65,11.53 -1.65,28 -1.65,49.42 -1.64,21.41 -1.64,47.77 -1.64,80.72l1.64 255.32z"/>
   <path class="fil0" d="M5873.36 1815.71c29.65,-18.12 62.59,-32.94 100.48,-42.83 37.89,-8.24 75.78,-13.18 116.96,-13.18 57.65,0 112.02,8.24 163.08,24.71 -3.29,-34.59 -9.89,-64.24 -21.41,-90.6 -14.83,-34.59 -36.24,-59.3 -64.24,-74.13 -11.54,-4.94 -23.06,-9.89 -34.59,-13.18 -13.18,-1.64 -28.01,-3.29 -44.48,-3.29l-18.12 0c-14.83,1.65 -31.3,3.29 -46.13,6.59 -14.82,4.94 -31.29,9.89 -46.12,14.83 -14.82,4.94 -31.3,9.89 -46.12,13.18 -14.83,4.94 -29.65,6.59 -44.48,6.59 -14.82,0 -29.65,-3.29 -44.47,-9.88 -13.18,-8.24 -24.71,-19.77 -34.59,-37.89l-3.29 -6.59 3.29 -4.94c32.94,-34.59 72.48,-64.24 116.95,-85.66 44.48,-21.41 92.25,-32.94 144.97,-36.24 4.94,-1.65 9.88,-1.65 14.82,-1.65 3.29,0 8.24,0 13.18,0 51.06,0 97.19,8.24 138.37,26.36 41.18,18.12 77.42,44.48 108.72,75.77 62.6,67.54 95.54,158.14 97.19,268.5l0 13.18c0,113.67 -29.65,207.56 -87.3,278.39 -28.01,34.59 -62.6,64.24 -102.13,85.66 -41.19,21.41 -85.66,36.24 -135.08,41.19 -6.59,1.64 -13.18,1.64 -19.76,1.64 -6.59,0 -13.18,0 -21.41,0 -23.06,0 -47.77,-1.64 -72.48,-4.94 -24.71,-4.94 -49.42,-11.53 -74.13,-23.06 -24.71,-9.89 -47.77,-23.06 -69.19,-39.54 -21.41,-14.83 -37.89,-36.24 -52.71,-60.95 -21.41,-31.29 -31.3,-70.83 -32.94,-116.95l0 -9.89c0,-42.83 8.24,-79.07 26.35,-107.07 14.83,-28.01 39.54,-52.71 70.84,-74.13zm340.98 79.07c-14.83,-1.65 -29.65,-4.94 -47.77,-6.59 -18.12,-1.64 -37.89,-3.29 -56.01,-3.29 -14.82,0 -29.65,0 -44.47,1.65 -14.83,1.64 -28.01,4.94 -39.54,9.88 -28.01,8.24 -47.77,23.06 -62.59,41.19 -4.94,6.59 -9.89,13.18 -13.18,21.41 -3.3,8.24 -4.94,18.12 -6.59,28 -1.64,3.29 -1.64,8.24 -1.64,14.83 0,11.53 1.64,23.06 4.94,34.59 3.3,13.18 9.89,24.71 19.77,36.24 8.24,11.53 21.41,19.77 39.54,28.01 16.47,8.24 39.53,11.53 67.54,11.53 8.24,0 14.82,0 19.76,-1.65 31.3,-1.64 57.66,-9.88 80.72,-26.36 11.54,-6.59 19.77,-14.82 28.01,-24.71 8.24,-8.24 14.82,-18.12 19.76,-29.65 11.53,-21.41 19.76,-42.83 24.71,-64.24 4.94,-21.41 6.59,-42.83 6.59,-60.95 -1.65,0 -1.65,0 -1.65,-1.64 -1.64,0 -1.64,0 -3.29,0 -4.94,-1.65 -9.89,-1.65 -14.83,-3.29 -4.94,-1.65 -11.53,-3.3 -19.76,-4.94z"/>
   <path class="fil0" d="M6941.45 2169.87c-19.77,36.24 -42.83,60.95 -69.19,74.13 -26.36,13.18 -51.06,21.41 -74.13,23.06 -28,1.64 -54.36,-1.65 -82.37,-13.18 -8.24,-19.77 -19.76,-47.77 -34.59,-84.01 -14.82,-34.59 -31.29,-74.12 -49.42,-118.6 -18.12,-44.47 -37.89,-90.6 -57.66,-138.37 -21.41,-47.77 -39.53,-95.54 -57.65,-140.02 -18.12,-44.47 -34.59,-84.01 -49.42,-120.25 -14.83,-36.24 -26.36,-64.24 -34.59,-84.01 -4.94,-9.89 -8.24,-19.76 -13.18,-29.65 -4.94,-9.89 -8.24,-19.76 -11.54,-28 -4.94,-9.89 -8.24,-19.77 -11.53,-29.65 32.94,-8.24 64.24,-9.89 93.89,-8.24 24.71,1.65 51.06,9.89 77.42,21.41 24.71,13.18 46.12,37.89 60.95,72.48 4.94,11.54 11.53,28.01 19.76,47.77 8.24,21.41 16.47,42.83 26.36,67.54 8.24,24.71 18.12,49.42 29.65,75.78 9.89,26.36 19.76,52.71 29.65,79.07 23.06,60.95 47.77,125.19 75.77,196.02 26.36,-70.83 51.06,-135.07 75.78,-196.02 9.88,-26.36 19.76,-52.71 31.29,-79.07 11.54,-26.36 21.41,-51.06 31.3,-75.78 8.24,-24.71 16.47,-46.12 24.71,-67.54 8.24,-19.76 14.83,-36.24 19.77,-47.77 14.82,-34.59 34.59,-59.3 60.94,-72.48 26.36,-11.53 52.71,-19.76 77.42,-21.41 29.65,-1.64 60.95,0 93.89,8.24 -4.94,8.24 -8.24,18.12 -13.18,28 -3.29,8.24 -6.59,18.12 -11.53,28 -4.94,11.54 -8.24,21.41 -11.53,31.3 -8.24,21.41 -18.12,47.77 -31.3,80.72 -13.18,34.59 -26.36,70.84 -41.18,108.72 -14.83,39.54 -31.3,79.07 -47.77,120.25 -18.12,41.18 -34.59,80.72 -49.42,118.6 -14.82,37.89 -29.65,72.48 -42.83,102.13 -14.82,31.3 -26.35,54.36 -34.59,70.83z"/>
   <path class="fil0" d="M7442.87 1237.52c-23.06,37.89 -54.36,57.65 -95.54,57.65 -18.12,0 -34.59,-3.29 -49.42,-11.53 -16.47,-9.89 -29.65,-23.06 -37.89,-39.54 -8.24,-14.83 -13.18,-32.94 -13.18,-51.06 0,-21.41 4.94,-39.54 14.82,-56.01 9.89,-18.12 23.06,-32.94 41.19,-44.48 18.12,-9.88 36.24,-14.82 54.36,-14.82 16.47,0 32.94,4.94 47.77,13.18 18.12,8.24 31.29,21.41 39.53,37.89 8.24,16.47 13.18,34.59 13.18,52.71 0,19.76 -4.94,37.89 -14.82,56.01zm128.49 849.99c-4.94,8.24 -14.83,13.18 -28.01,18.12 -13.18,4.94 -26.36,6.59 -39.53,4.94 -13.18,-1.64 -24.71,-9.88 -34.59,-21.41 -9.89,-11.53 -14.83,-29.65 -14.83,-56.01l0 -393.69c0,-32.95 0,-59.31 1.65,-80.72 0,-19.76 0,-36.24 1.64,-47.77 1.65,-13.18 1.65,-23.06 3.3,-31.3 -67.54,0 -120.25,14.82 -154.84,42.83 -34.59,28 -52.71,75.77 -52.71,141.67l-1.64 388.75c0,28 4.94,54.36 13.17,79.07 8.24,24.71 19.77,47.77 37.89,65.89 16.47,18.12 37.89,32.94 62.59,44.47 24.71,9.89 54.36,13.18 88.95,9.89 34.59,-1.64 60.95,-11.53 77.42,-31.3 16.47,-18.12 28,-36.24 32.94,-56 6.59,-23.06 8.24,-49.42 6.59,-77.42z"/>
   <path class="fil0" d="M7684.02 1815.71c29.65,-18.12 62.59,-32.94 100.48,-42.83 37.89,-8.24 75.78,-13.18 116.96,-13.18 57.65,0 112.02,8.24 163.08,24.71 -3.29,-34.59 -9.89,-64.24 -21.41,-90.6 -14.83,-34.59 -36.24,-59.3 -64.24,-74.13 -11.54,-4.94 -23.06,-9.89 -34.59,-13.18 -13.18,-1.64 -28.01,-3.29 -44.48,-3.29l-18.12 0c-14.83,1.65 -31.3,3.29 -46.13,6.59 -14.82,4.94 -31.29,9.89 -46.12,14.83 -14.82,4.94 -31.3,9.89 -46.12,13.18 -14.83,4.94 -29.65,6.59 -44.48,6.59 -14.82,0 -29.65,-3.29 -44.47,-9.88 -13.18,-8.24 -24.71,-19.77 -34.59,-37.89l-3.29 -6.59 3.29 -4.94c32.94,-34.59 72.48,-64.24 116.95,-85.66 44.48,-21.41 92.25,-32.94 144.97,-36.24 4.94,-1.65 9.88,-1.65 14.82,-1.65 3.29,0 8.24,0 13.18,0 51.06,0 97.19,8.24 138.37,26.36 41.18,18.12 77.42,44.48 108.72,75.77 62.6,67.54 95.54,158.14 97.19,268.5l0 13.18c0,113.67 -29.65,207.56 -87.3,278.39 -28.01,34.59 -62.6,64.24 -102.13,85.66 -41.19,21.41 -85.66,36.24 -135.08,41.19 -6.59,1.64 -13.18,1.64 -19.76,1.64 -6.59,0 -13.18,0 -21.41,0 -23.06,0 -47.77,-1.64 -72.48,-4.94 -24.71,-4.94 -49.42,-11.53 -74.13,-23.06 -24.71,-9.89 -47.77,-23.06 -69.19,-39.54 -21.41,-14.83 -37.89,-36.24 -52.71,-60.95 -21.41,-31.29 -31.3,-70.83 -32.94,-116.95l0 -9.89c0,-42.83 8.24,-79.07 26.35,-107.07 14.83,-28.01 39.54,-52.71 70.84,-74.13zm340.98 79.07c-14.83,-1.65 -29.65,-4.94 -47.77,-6.59 -18.12,-1.64 -37.89,-3.29 -56.01,-3.29 -14.82,0 -29.65,0 -44.47,1.65 -14.83,1.64 -28.01,4.94 -39.54,9.88 -28.01,8.24 -47.77,23.06 -62.59,41.19 -4.94,6.59 -9.89,13.18 -13.18,21.41 -3.3,8.24 -4.94,18.12 -6.59,28 -1.64,3.29 -1.64,8.24 -1.64,14.83 0,11.53 1.64,23.06 4.94,34.59 3.3,13.18 9.89,24.71 19.77,36.24 8.24,11.53 21.41,19.77 39.54,28.01 16.47,8.24 39.53,11.53 67.54,11.53 8.24,0 14.82,0 19.76,-1.65 31.3,-1.64 57.66,-9.88 80.72,-26.36 11.54,-6.59 19.77,-14.82 28.01,-24.71 8.24,-8.24 14.82,-18.12 19.76,-29.65 11.53,-21.41 19.76,-42.83 24.71,-64.24 4.94,-21.41 6.59,-42.83 6.59,-60.95 -1.65,0 -1.65,0 -1.65,-1.64 -1.64,0 -1.64,0 -3.29,0 -4.94,-1.65 -9.89,-1.65 -14.83,-3.29 -4.94,-1.65 -11.53,-3.3 -19.76,-4.94z"/>
   <path class="fil0" d="M8317.24 1838.77c0,-74.13 11.53,-133.43 32.94,-181.2 21.41,-46.12 47.77,-82.36 82.37,-108.72 34.59,-26.36 72.48,-44.48 115.31,-54.36 41.18,-8.24 84.01,-13.17 125.19,-13.17l80.72 0c4.94,23.06 6.59,44.47 3.3,64.24 -1.65,16.48 -9.89,32.95 -21.41,47.77 -13.18,14.83 -34.59,24.71 -62.6,28.01 -18.12,1.64 -36.24,6.59 -54.36,11.53 -18.12,6.59 -34.59,16.47 -49.42,31.3 -14.83,14.82 -26.36,36.24 -34.59,64.24 -9.89,28 -14.83,64.24 -14.83,110.37l0 238.85c0,32.94 0,59.3 1.65,79.07 0,21.41 0,37.89 1.64,49.42 1.65,13.18 1.65,23.06 3.3,29.65 -67.54,0 -118.61,-14.83 -154.84,-42.83 -36.24,-28 -54.36,-74.13 -54.36,-140.02l0 -214.15z"/>
   <path class="fil0" d="M9349.09 2075.98c13.18,8.24 26.36,21.41 37.89,39.54l4.94 4.94 -4.94 4.94c-36.24,39.54 -79.07,70.83 -128.49,92.24 -51.06,23.06 -105.42,34.59 -163.07,34.59 -51.06,0 -97.19,-9.89 -141.67,-31.3 -44.48,-19.76 -84.01,-47.77 -118.61,-84.01 -32.94,-34.59 -59.3,-77.42 -77.42,-125.19 -19.77,-47.77 -29.65,-98.83 -29.65,-153.19 0,-54.36 8.24,-107.07 26.35,-154.84 16.47,-47.77 41.19,-88.95 72.48,-125.19 31.3,-34.59 70.84,-62.6 116.96,-84.01 44.48,-21.41 95.54,-31.29 151.55,-31.29 31.29,0 64.24,4.94 102.13,13.18 36.24,9.88 70.83,24.71 102.13,44.47 31.29,21.41 57.65,47.77 79.07,80.72 21.41,32.95 31.3,72.48 31.3,118.61 0,44.47 -11.53,80.72 -34.59,108.72 -23.06,28.01 -51.06,51.06 -82.37,65.89 -31.29,16.47 -65.89,28 -100.48,32.94 -36.24,6.59 -67.54,9.89 -93.89,9.89 -41.19,0 -75.77,-3.29 -105.43,-8.24 -31.29,-4.94 -51.06,-8.24 -62.59,-9.89 4.94,39.54 13.18,70.83 26.36,95.54 13.18,24.71 28,44.47 44.48,59.3 16.47,14.82 32.94,23.06 49.42,28 16.47,4.94 31.3,8.24 44.48,8.24 23.06,0 44.47,-1.64 65.89,-6.59 21.41,-4.94 39.54,-9.89 56.01,-14.83 16.47,-4.94 32.94,-11.53 47.77,-16.47 14.82,-4.94 28,-8.24 42.83,-8.24 14.82,0 29.65,3.29 41.18,11.53zm-253.67 -472.76c-11.54,1.65 -26.36,3.29 -42.83,8.24 -16.48,4.94 -32.95,14.83 -47.77,28.01 -16.47,13.17 -31.3,31.29 -44.48,56 -13.18,24.71 -23.06,54.36 -28,92.25 18.12,4.94 42.83,9.89 75.77,14.82 31.3,4.94 64.24,6.59 97.19,3.3 31.3,-3.3 60.95,-13.18 85.66,-28.01 24.71,-14.82 37.89,-41.18 39.54,-77.42 1.65,-28 -8.24,-51.06 -31.3,-70.83 -24.71,-19.77 -59.3,-28.01 -103.77,-26.36z"/>
   <path class="fil1" d="M7782.93 2656.55c-16.61,0 -31.26,-1.95 -44.45,-5.87 -13.19,-3.91 -24.91,-8.79 -34.19,-14.16 -9.28,-5.37 -17.1,-10.75 -22.47,-16.12 -5.87,-5.37 -9.29,-9.77 -10.75,-13.19l1.46 -1.47c2.93,-4.4 6.35,-7.82 9.77,-10.26 3.42,-1.95 6.84,-2.93 10.26,-2.93 2.45,0 4.4,0.49 6.84,0.98 1.95,0.49 4.4,1.47 6.84,2.44 2.45,0.49 5.37,1.47 7.82,2.45 2.44,1.47 5.37,2.93 8.79,4.39 6.35,2.45 14.16,4.89 22.96,6.84 8.8,2.45 19.54,3.91 31.76,4.4l5.37 0c12.21,0 22.47,-1.47 30.78,-4.4 8.31,-2.44 15.14,-6.35 20.52,-10.75 5.37,-4.4 8.79,-9.28 11.24,-14.66 2.44,-5.37 3.42,-10.26 3.42,-15.14 0.49,-8.31 -1.95,-16.12 -7.33,-23.45 -5.38,-6.84 -13.19,-13.68 -22.48,-20.03 -9.28,-6.35 -20.52,-13.19 -33.22,-20.03 -12.7,-6.84 -26.38,-14.16 -40.55,-21.98 -23.45,-13.18 -41.03,-28.33 -52.27,-44.94 -11.23,-16.12 -16.12,-33.71 -14.65,-51.78 1.47,-13.68 4.89,-25.4 11.23,-35.66 6.35,-10.26 14.17,-18.56 23.45,-25.4 9.29,-6.35 19.54,-11.24 31.27,-14.66 11.23,-2.93 22.96,-4.39 34.68,-4.39 20.03,0 37.13,2.44 52.27,7.81 15.14,5.37 27.84,10.75 38.1,17.1 12.21,7.33 22.47,15.14 30.78,24.43l-0.98 1.46c-3.91,4.89 -7.33,8.31 -9.77,9.77 -3.42,2.45 -6.84,3.42 -10.75,3.42 -3.42,0 -7.81,-0.97 -13.18,-3.42 -2.45,-0.97 -5.38,-1.95 -7.82,-3.42 -2.93,-0.97 -5.86,-1.95 -9.28,-3.42 -9.29,-3.42 -19.54,-6.35 -29.8,-8.79 -10.75,-1.95 -20.03,-2.93 -28.33,-2.44 -4.4,0 -8.8,0.49 -13.68,0.97 -4.88,0.49 -9.28,1.95 -13.68,3.42 -4.39,1.47 -8.3,3.91 -11.72,6.84 -3.42,2.93 -5.87,6.84 -7.33,11.24 -2.93,9.77 -0.97,18.56 6.35,25.89 6.84,7.33 16.12,14.66 28.34,21.98 11.72,7.33 24.91,14.16 39.57,21 14.16,7.33 27.84,15.14 40.55,23.94 17.58,12.21 30.78,24.92 39.57,37.61 8.31,13.19 13.68,25.9 15.63,38.11 1.95,12.21 1.47,24.42 -1.95,35.66 -3.42,11.23 -7.82,21.49 -13.68,30.28 -10.26,16.12 -25.89,28.82 -46.41,37.13 -21.01,8.79 -43.97,13.19 -68.88,13.19z"/>
   <path class="fil1" d="M8266.57 2624.3c1.47,3.42 2.45,6.35 3.91,9.28 1.47,2.93 2.45,5.87 3.42,8.31 1.47,2.93 2.45,5.87 3.42,8.79 -9.77,2.45 -19.05,3.42 -27.84,2.45 -7.33,-0.49 -15.14,-2.93 -22.47,-6.84 -7.82,-3.91 -13.68,-11.24 -18.08,-21.5 -1.95,-4.39 -5.37,-13.68 -10.75,-26.87 -5.37,-13.18 -11.24,-28.82 -18.56,-46.89l-138.73 0c-7.33,18.08 -13.19,33.71 -18.56,46.89 -5.37,13.19 -8.79,22.48 -10.75,26.87 -4.4,10.26 -10.75,17.59 -18.08,21.5 -7.33,3.91 -15.14,6.35 -22.47,6.84 -8.79,0.97 -18.08,0 -27.85,-2.45 0.98,-2.93 1.96,-5.86 3.42,-8.79 0.98,-2.44 1.96,-5.37 3.42,-8.31 0.98,-2.93 2.45,-5.86 3.91,-9.28 2.44,-5.86 6.35,-16.12 12.21,-30.29 5.37,-14.16 12.21,-30.78 19.54,-49.34 7.33,-18.56 15.64,-38.1 23.94,-58.62 8.31,-20.52 16.12,-40.06 23.45,-58.62 7.33,-18.56 13.68,-35.17 19.54,-49.33 5.86,-14.17 9.77,-23.94 12.21,-29.8 3.42,-9.28 7.33,-16.61 11.72,-21.98 3.91,-5.37 7.81,-9.28 11.72,-12.21 3.91,-2.93 7.81,-4.89 11.72,-5.86 3.42,-0.49 6.84,-0.98 10.26,-0.98 3.42,0 6.84,0.49 10.75,0.98 3.42,0.97 7.33,2.93 11.23,5.86 3.91,2.93 7.82,6.84 12.21,12.21 3.91,5.37 7.82,12.7 11.24,21.98 2.45,5.86 6.35,15.63 12.21,29.8 5.37,14.16 12.21,30.78 19.54,49.33 7.33,18.56 15.63,38.11 23.94,58.62 8.31,20.52 16.12,40.05 23.45,58.62 7.33,18.56 14.16,35.17 20.02,49.34 5.37,14.16 9.29,24.43 11.72,30.29zm-105.52 -121.64c-6.35,-16.12 -12.7,-32.24 -19.05,-47.87 -6.35,-15.14 -11.72,-29.32 -16.12,-41.53 -5.87,-14.16 -11.24,-27.84 -15.64,-41.03 -5.37,13.19 -10.75,26.87 -16.12,41.03 -4.89,12.21 -10.26,26.38 -16.12,41.53 -5.87,15.63 -12.22,31.75 -18.56,47.87l101.61 0z"/>
   <path class="fil1" d="M8656.43 2600.37l0 3.42c0,11.24 -1.95,19.54 -5.87,25.89 -3.42,6.35 -8.31,11.24 -15.14,14.66 -6.35,3.42 -13.18,5.37 -21,5.86 -8.31,0.49 -15.63,0.98 -21.98,1.47 -29.8,1.47 -55.2,-0.49 -76.21,-4.89 -21.49,-4.39 -39.07,-12.7 -52.75,-24.91 -14.17,-12.22 -24.43,-29.32 -30.78,-50.81 -6.84,-21.01 -10.26,-47.87 -10.26,-80.11l0 -92.33c0,-21.98 3.42,-39.57 10.26,-52.27 3.42,-6.35 7.82,-11.72 12.7,-15.63 4.89,-3.91 10.75,-7.33 17.1,-9.77 4.4,-1.47 8.79,-2.93 13.19,-4.4 4.39,-0.97 9.28,-1.95 14.65,-2.44 6.84,-0.49 14.17,-0.98 21.5,-1.47 7.33,-0.49 15.14,-0.49 23.45,-0.49l42.99 0c21,0 35.66,-0.49 44.94,-0.98 9.29,-0.49 15.14,-0.97 17.59,-1.47l0.97 0 2.93 0 0 2.93c0,11.24 -1.95,19.54 -5.87,25.89 -3.42,6.35 -8.79,11.24 -15.14,15.14 -6.35,3.42 -13.19,5.37 -20.52,5.87 -7.33,0.49 -15.14,0.97 -22.47,0.97l-83.04 0c-1.96,0.49 -3.42,0.49 -4.89,0.98 -1.47,0.49 -2.45,0.97 -3.42,1.47 -1.95,0.97 -3.42,2.44 -4.4,3.91 -1.47,1.47 -1.95,3.91 -2.44,6.35 -0.49,2.93 -0.49,6.35 -0.49,9.77l1.47 59.6 120.18 0c0,14.66 -3.91,26.38 -12.21,35.17 -8.31,8.79 -19.54,13.19 -34.69,13.19l-73.76 0c-0.49,21.98 0.98,40.05 4.4,54.23 3.42,14.65 9.28,26.38 17.58,34.68 7.81,8.31 18.07,14.65 31.26,18.07 12.7,3.42 27.85,5.38 45.92,5.38 21,0 37.61,-0.49 49.34,-0.98 11.24,-0.49 18.56,-0.98 21,-1.47l0.98 0 2.93 -0.49z"/>
   <path class="fil1" d="M8796.15 2656.55c-16.61,0 -31.26,-1.95 -44.45,-5.87 -13.19,-3.91 -24.91,-8.79 -34.19,-14.16 -9.28,-5.37 -17.1,-10.75 -22.47,-16.12 -5.87,-5.37 -9.29,-9.77 -10.75,-13.19l1.46 -1.47c2.93,-4.4 6.35,-7.82 9.77,-10.26 3.42,-1.95 6.84,-2.93 10.26,-2.93 2.45,0 4.4,0.49 6.84,0.98 1.95,0.49 4.4,1.47 6.84,2.44 2.45,0.49 5.37,1.47 7.82,2.45 2.44,1.47 5.37,2.93 8.79,4.39 6.35,2.45 14.16,4.89 22.96,6.84 8.8,2.45 19.54,3.91 31.76,4.4l5.37 0c12.21,0 22.47,-1.47 30.78,-4.4 8.31,-2.44 15.14,-6.35 20.52,-10.75 5.37,-4.4 8.79,-9.28 11.24,-14.66 2.44,-5.37 3.42,-10.26 3.42,-15.14 0.49,-8.31 -1.95,-16.12 -7.33,-23.45 -5.38,-6.84 -13.19,-13.68 -22.48,-20.03 -9.28,-6.35 -20.52,-13.19 -33.22,-20.03 -12.7,-6.84 -26.38,-14.16 -40.55,-21.98 -23.45,-13.18 -41.03,-28.33 -52.27,-44.94 -11.23,-16.12 -16.12,-33.71 -14.65,-51.78 1.47,-13.68 4.89,-25.4 11.23,-35.66 6.35,-10.26 14.17,-18.56 23.45,-25.4 9.29,-6.35 19.54,-11.24 31.27,-14.66 11.23,-2.93 22.96,-4.39 34.68,-4.39 20.03,0 37.13,2.44 52.27,7.81 15.14,5.37 27.84,10.75 38.1,17.1 12.21,7.33 22.47,15.14 30.78,24.43l-0.98 1.46c-3.91,4.89 -7.33,8.31 -9.77,9.77 -3.42,2.45 -6.84,3.42 -10.75,3.42 -3.42,0 -7.81,-0.97 -13.18,-3.42 -2.45,-0.97 -5.38,-1.95 -7.82,-3.42 -2.93,-0.97 -5.86,-1.95 -9.28,-3.42 -9.29,-3.42 -19.54,-6.35 -29.8,-8.79 -10.75,-1.95 -20.03,-2.93 -28.33,-2.44 -4.4,0 -8.8,0.49 -13.68,0.97 -4.88,0.49 -9.28,1.95 -13.68,3.42 -4.39,1.47 -8.3,3.91 -11.72,6.84 -3.42,2.93 -5.87,6.84 -7.33,11.24 -2.93,9.77 -0.97,18.56 6.35,25.89 6.84,7.33 16.12,14.66 28.34,21.98 11.72,7.33 24.91,14.16 39.57,21 14.16,7.33 27.84,15.14 40.55,23.94 17.58,12.21 30.78,24.92 39.57,37.61 8.31,13.19 13.68,25.9 15.63,38.11 1.95,12.21 1.47,24.42 -1.95,35.66 -3.42,11.23 -7.82,21.49 -13.68,30.28 -10.26,16.12 -25.89,28.82 -46.41,37.13 -21.01,8.79 -43.97,13.19 -68.88,13.19z"/>
   <path class="fil1" d="M9036.51 2604.27c0,10.26 0,18.08 0.49,23.94 0,6.35 0,11.24 0.49,14.66 0.49,3.91 0.49,6.84 0.98,8.79 -20.03,0 -35.17,-4.4 -45.92,-12.7 -11.24,-8.31 -16.61,-21.98 -16.61,-41.53l0.97 -206.64c0,-15.63 2.93,-28.82 8.31,-39.08 5.37,-10.26 13.19,-19.05 22.96,-25.4 9.77,-6.35 21.49,-10.75 34.68,-13.68 13.19,-2.44 27.36,-4.39 42.99,-5.37 15.14,-0.98 31.27,0 48.37,3.42 17.1,3.42 32.73,9.28 47.39,17.58 14.65,8.79 26.86,20.52 37.12,35.17 9.77,14.66 15.14,33.22 16.12,55.69 0.49,13.68 -0.98,27.84 -4.89,42.01 -4.4,14.66 -11.24,27.85 -20.52,39.57 -9.29,11.72 -21.98,21.5 -37.61,28.82 -15.63,7.82 -34.69,11.72 -57.16,11.72 -11.23,0 -21,-0.49 -30.28,-1.95 -9.29,-1.47 -17.59,-2.93 -24.92,-4.39 -8.31,-1.96 -16.12,-4.4 -22.96,-6.84l0 76.2zm67.42 -110.89c21,0 38.1,-6.35 51.29,-18.56 13.19,-12.21 19.05,-30.78 18.08,-55.69 -0.49,-13.19 -3.42,-23.94 -8.31,-32.73 -5.37,-8.79 -11.72,-15.63 -19.54,-20.52 -8.31,-4.89 -17.58,-8.31 -27.84,-9.77 -10.26,-1.47 -21,-1.96 -31.76,-0.98 -9.77,0.98 -17.58,2.44 -23.94,4.89 -6.35,2.44 -11.23,5.37 -14.65,8.79 -3.91,3.42 -6.35,7.33 -7.82,11.72 -1.47,4.4 -2.44,8.31 -2.44,12.7l0 85.98c5.86,2.44 12.21,4.89 19.54,6.84 6.35,1.47 13.19,3.42 21.5,4.89 7.81,1.47 16.61,2.44 25.89,2.44z"/>
   <path class="fil2" d="M7.48 2824.12c45.26,-86.81 93.2,-187.32 138.45,-274.14 -46.32,3.99 -99.75,14.8 -145.93,16.64 13.92,-82.69 104.65,-126.98 209.74,-150.05 110.13,-213.37 202.69,-453.11 292.5,-696.97 -26.86,-2.69 -53.72,-5.37 -80.58,-8.06 -13.9,-0.73 -20.52,-18.27 -6.44,-27.4 40.29,-26.32 84.11,-47.78 124.4,-74.11 46.46,-133.27 73.15,-274.72 98.54,-416.31 -41.32,-16.88 -23.9,-24.78 14.33,-53.73 11.09,-103.09 29.18,-209.68 40.28,-312.77 -124.59,44.12 -249.71,108.78 -359.77,165.01 -47.66,-5.9 -83,-11 -125.38,-19.71 143.35,-96.45 318.32,-170.26 490.69,-230.45 2.89,-68.98 0.85,-137.15 3.31,-206.06 0.82,-23.07 22.59,-23.96 24.66,3.1 4.87,63.38 9.75,126.76 14.63,190.15 56.58,-14.02 113.17,-28.03 169.75,-42.05 -8.31,-76.82 -11.25,-160.08 -19.56,-236.91 -155.84,21.72 -366.35,85.13 -596.44,160.53 -29.88,9.79 -39.39,12.1 -71.29,13.63 -20.21,0.97 -41.2,0.24 -47.37,-7.94 -12.48,-16.54 24.66,-29.34 34.68,-33.6 208.17,-88.35 430.14,-143.99 672.68,-192.82 -11.43,-116.98 -15.86,-228.59 -9.35,-342.65 0.76,-13.31 0.04,-24.08 9.39,-34.93 10.76,-12.48 28.92,-16.14 40.69,-8.62 12.58,8.05 9.58,18.68 8.92,31.31 -6.01,115.07 -3.27,230.15 2.55,345.22 136.2,-19.29 258.74,-36.04 390.59,-37.32 26.64,-2.53 32.31,19.73 7.25,27.34 -129.87,24.11 -260.01,43.87 -389.86,68.28 9.17,77.54 18.67,160.04 27.84,237.58 152.23,-20.93 304.47,-41.87 456.7,-62.8 49.78,-6.84 48.86,-7.67 0.88,5.27 -149.93,40.45 -305.12,80.91 -455.05,121.37l12.79 66.89 20.11 -24.81 -0.36 15.25 -16.49 26.35c50.52,255.53 109.14,510.02 181.66,764.08 46.81,-4.63 137.51,-36.08 166.4,-5.34 18.55,19.75 12.33,56.06 -2.67,92.81 -26.54,64.54 -74.45,135.91 -85.86,152.3 91.35,350.86 235.64,691.28 402.25,990.64 -88.32,-0.98 -173.67,-6.41 -261.99,-7.39 -86.81,-270.4 -170.49,-564.64 -233.54,-846.92 -265.32,297 -553.94,453.15 -843.85,543.55 -40.12,111.45 -73.93,220.99 -114.06,332.44 -63.61,-9.08 -127.23,-6.81 -190.84,-15.89zm1180.27 -1178.1c14.04,-4.07 27.36,-6.89 41.22,-6.37 35.35,1.31 35.61,11.81 30.14,44.48 -5.35,31.94 -21.62,57.33 -35.85,83.01 -11.84,-40.38 -23.68,-80.75 -35.51,-121.12zm-813.69 700.15c69.03,-211.71 141.33,-421.24 210.37,-632.94 165.11,-18.98 335.78,-34.99 500.89,-53.98 20.14,79.97 31.44,154.78 51.58,234.74 -236,213.87 -491.28,361.11 -762.83,452.18zm257.29 -790.04c21.45,-109.5 45.5,-221.59 66.96,-331.09 74.97,22.69 157.05,46.03 232.02,68.72 -65,118.24 -176.75,201.36 -298.98,262.37zm437.28 41.98c-143.81,15.44 -300.23,26.57 -445.67,27.33 140.43,-90.59 286.15,-190.67 367.62,-353.33 -92.23,-37.47 -193.07,-72.46 -286.33,-107.58 82.62,-80.37 168,-168.67 234.61,-261.5 42.54,229.97 87.24,465.12 129.78,695.09zm-352 -506.19c6.21,-89.79 14.32,-186.24 20.54,-276.03 60.89,-20.77 121.79,-41.55 182.67,-62.32 5.02,37.97 10.03,75.94 15.04,113.91 -69.76,82.77 -144.66,158.23 -218.25,224.45z"/>
  </g>
 </g>
</svg>
